<mxfile host="app.diagrams.net" agent="Mozilla/5.0 (X11; Ubuntu; Linux x86_64; rv:144.0) Gecko/20100101 Firefox/144.0" version="28.2.8">
  <diagram name="Page-1" id="EIduPS4k_qxPhwkqMvl-">
    <mxGraphModel dx="1245" dy="806" grid="1" gridSize="10" guides="1" tooltips="1" connect="1" arrows="1" fold="1" page="1" pageScale="1" pageWidth="850" pageHeight="1100" math="0" shadow="0">
      <root>
        <mxCell id="0" />
        <mxCell id="1" parent="0" />
        <mxCell id="uj6fiVAzFxfoOgEx3BYY-2" style="edgeStyle=orthogonalEdgeStyle;rounded=0;orthogonalLoop=1;jettySize=auto;html=1;" edge="1" parent="1">
          <mxGeometry relative="1" as="geometry">
            <mxPoint x="100.5" y="127" as="sourcePoint" />
            <mxPoint x="419.5" y="127" as="targetPoint" />
          </mxGeometry>
        </mxCell>
        <mxCell id="uj6fiVAzFxfoOgEx3BYY-3" value="&lt;font style=&quot;font-size: 23px;&quot;&gt;Node A&lt;/font&gt;" style="rounded=0;whiteSpace=wrap;html=1;" vertex="1" parent="1">
          <mxGeometry x="360" y="40" width="120" height="50" as="geometry" />
        </mxCell>
        <mxCell id="uj6fiVAzFxfoOgEx3BYY-4" value="&lt;font style=&quot;font-size: 23px;&quot;&gt;Node B&lt;/font&gt;" style="rounded=0;whiteSpace=wrap;html=1;" vertex="1" parent="1">
          <mxGeometry x="678" y="40" width="120" height="50" as="geometry" />
        </mxCell>
        <mxCell id="uj6fiVAzFxfoOgEx3BYY-5" style="edgeStyle=orthogonalEdgeStyle;rounded=0;orthogonalLoop=1;jettySize=auto;html=1;entryX=0;entryY=0.75;entryDx=0;entryDy=0;dashed=1;dashPattern=8 8;endArrow=none;endFill=0;startArrow=classic;startFill=1;" edge="1" parent="1">
          <mxGeometry relative="1" as="geometry">
            <mxPoint x="420" y="277" as="sourcePoint" />
            <mxPoint x="745" y="277" as="targetPoint" />
          </mxGeometry>
        </mxCell>
        <mxCell id="uj6fiVAzFxfoOgEx3BYY-6" style="edgeStyle=orthogonalEdgeStyle;rounded=0;orthogonalLoop=1;jettySize=auto;html=1;startArrow=classic;startFill=1;endArrow=none;endFill=0;" edge="1" parent="1">
          <mxGeometry relative="1" as="geometry">
            <mxPoint x="739" y="159" as="sourcePoint" />
            <mxPoint x="420" y="159" as="targetPoint" />
          </mxGeometry>
        </mxCell>
        <mxCell id="uj6fiVAzFxfoOgEx3BYY-7" value="" style="endArrow=none;html=1;rounded=0;entryX=0.5;entryY=1;entryDx=0;entryDy=0;" edge="1" parent="1" target="uj6fiVAzFxfoOgEx3BYY-3">
          <mxGeometry width="50" height="50" relative="1" as="geometry">
            <mxPoint x="420" y="350" as="sourcePoint" />
            <mxPoint x="650" y="400" as="targetPoint" />
          </mxGeometry>
        </mxCell>
        <mxCell id="uj6fiVAzFxfoOgEx3BYY-8" value="" style="endArrow=none;html=1;rounded=0;entryX=0.5;entryY=1;entryDx=0;entryDy=0;" edge="1" parent="1">
          <mxGeometry width="50" height="50" relative="1" as="geometry">
            <mxPoint x="738" y="350" as="sourcePoint" />
            <mxPoint x="737.5" y="90" as="targetPoint" />
          </mxGeometry>
        </mxCell>
        <mxCell id="uj6fiVAzFxfoOgEx3BYY-11" style="edgeStyle=orthogonalEdgeStyle;rounded=0;orthogonalLoop=1;jettySize=auto;html=1;" edge="1" parent="1">
          <mxGeometry relative="1" as="geometry">
            <mxPoint x="739" y="203" as="sourcePoint" />
            <mxPoint x="739" y="233" as="targetPoint" />
            <Array as="points">
              <mxPoint x="799" y="203" />
              <mxPoint x="799" y="233" />
            </Array>
          </mxGeometry>
        </mxCell>
        <mxCell id="uj6fiVAzFxfoOgEx3BYY-12" value="delete token for network user in DB" style="text;html=1;whiteSpace=wrap;strokeColor=none;fillColor=none;align=center;verticalAlign=middle;rounded=0;" vertex="1" parent="1">
          <mxGeometry x="804" y="203" width="126" height="30" as="geometry" />
        </mxCell>
        <mxCell id="uj6fiVAzFxfoOgEx3BYY-13" value="&lt;font style=&quot;font-size: 23px;&quot;&gt;Client&lt;/font&gt;" style="rounded=0;whiteSpace=wrap;html=1;" vertex="1" parent="1">
          <mxGeometry x="40" y="40" width="120" height="50" as="geometry" />
        </mxCell>
        <mxCell id="uj6fiVAzFxfoOgEx3BYY-14" value="Request delete access token on Node B" style="text;html=1;whiteSpace=wrap;strokeColor=none;fillColor=none;align=center;verticalAlign=middle;rounded=0;" vertex="1" parent="1">
          <mxGeometry x="140" y="100" width="230" height="30" as="geometry" />
        </mxCell>
        <mxCell id="uj6fiVAzFxfoOgEx3BYY-15" value="Request delete access token on behalf of the client" style="text;html=1;whiteSpace=wrap;strokeColor=none;fillColor=none;align=center;verticalAlign=middle;rounded=0;" vertex="1" parent="1">
          <mxGeometry x="438" y="130" width="278" height="30" as="geometry" />
        </mxCell>
        <mxCell id="uj6fiVAzFxfoOgEx3BYY-16" value="Success/failure response" style="text;html=1;whiteSpace=wrap;strokeColor=none;fillColor=none;align=center;verticalAlign=middle;rounded=0;" vertex="1" parent="1">
          <mxGeometry x="500" y="250" width="140" height="30" as="geometry" />
        </mxCell>
        <mxCell id="uj6fiVAzFxfoOgEx3BYY-19" style="edgeStyle=orthogonalEdgeStyle;rounded=0;orthogonalLoop=1;jettySize=auto;html=1;entryX=0;entryY=0.75;entryDx=0;entryDy=0;dashed=1;dashPattern=8 8;endArrow=none;endFill=0;startArrow=classic;startFill=1;" edge="1" parent="1">
          <mxGeometry relative="1" as="geometry">
            <mxPoint x="100.5" y="307" as="sourcePoint" />
            <mxPoint x="425.5" y="307" as="targetPoint" />
          </mxGeometry>
        </mxCell>
        <mxCell id="uj6fiVAzFxfoOgEx3BYY-20" value="Success/failure response" style="text;html=1;whiteSpace=wrap;strokeColor=none;fillColor=none;align=center;verticalAlign=middle;rounded=0;" vertex="1" parent="1">
          <mxGeometry x="177.5" y="280" width="140" height="30" as="geometry" />
        </mxCell>
        <mxCell id="uj6fiVAzFxfoOgEx3BYY-21" value="" style="endArrow=none;html=1;rounded=0;entryX=0.5;entryY=1;entryDx=0;entryDy=0;" edge="1" parent="1">
          <mxGeometry width="50" height="50" relative="1" as="geometry">
            <mxPoint x="99.5" y="350" as="sourcePoint" />
            <mxPoint x="99.5" y="90" as="targetPoint" />
          </mxGeometry>
        </mxCell>
      </root>
    </mxGraphModel>
  </diagram>
</mxfile>
